<svg xmlns="http://www.w3.org/2000/svg" xmlns:xlink="http://www.w3.org/1999/xlink" viewBox="0,0,256,256" width="144px" height="144px" fill-rule="nonzero"><g fill="none" fill-rule="nonzero" stroke="none" stroke-width="1" stroke-linecap="butt" stroke-linejoin="miter" stroke-miterlimit="10" stroke-dasharray="" stroke-dashoffset="0" font-family="none" font-weight="none" font-size="none" text-anchor="none" style="mix-blend-mode: normal"><g transform="scale(5.33333,5.33333)"><path d="M38,44h-12c-0.552,0 -1,-0.448 -1,-1v-38c0,-0.552 0.448,-1 1,-1h12c0.552,0 1,0.448 1,1v38c0,0.552 -0.448,1 -1,1z" fill="#ffd0f3"></path><path d="M30,44h-12c-0.552,0 -1,-0.448 -1,-1v-28c0,-0.552 0.448,-1 1,-1h12c0.552,0 1,0.448 1,1v28c0,0.552 -0.448,1 -1,1z" fill="#ffb9ed"></path><path d="M22,44h-12c-0.552,0 -1,-0.448 -1,-1v-18c0,-0.552 0.448,-1 1,-1h12c0.552,0 1,0.448 1,1v18c0,0.552 -0.448,1 -1,1z" fill="#fa99e1"></path></g></g></svg>